<?xml version="1.0" standalone="no"?>
<!DOCTYPE svg PUBLIC "-//W3C//DTD SVG 20010904//EN"
 "http://www.w3.org/TR/2001/REC-SVG-20010904/DTD/svg10.dtd">
<svg version="1.0" xmlns="http://www.w3.org/2000/svg"
 width="795.000000pt" height="795.000000pt" viewBox="0 0 795.000000 795.000000"
 preserveAspectRatio="xMidYMid meet">

<g transform="translate(0.000000,795.000000) scale(0.100000,-0.100000)"
fill="#000000" stroke="none">
<path d="M4120 7875 c-58 -19 -121 -40 -140 -46 -19 -6 -71 -28 -115 -49 -44
-20 -90 -40 -103 -44 -12 -4 -22 -12 -22 -17 0 -6 -9 -7 -21 -4 -15 5 -22 2
-26 -14 -3 -12 -13 -21 -24 -21 -11 0 -22 -6 -25 -14 -3 -8 -17 -17 -32 -21
-14 -3 -39 -20 -56 -36 -16 -16 -35 -29 -41 -29 -7 0 -38 -22 -69 -50 -31 -27
-61 -50 -66 -50 -16 0 -223 -215 -257 -267 -18 -29 -98 -117 -178 -196 -80
-79 -145 -148 -145 -154 0 -5 -13 -19 -30 -31 -16 -13 -30 -28 -30 -35 0 -7
-20 -32 -45 -56 -25 -24 -45 -47 -45 -53 0 -5 -12 -23 -27 -38 -51 -51 -61
-65 -74 -92 -6 -15 -23 -35 -36 -43 -13 -9 -28 -26 -34 -38 -14 -33 -54 -86
-105 -140 -25 -27 -52 -63 -59 -82 -8 -18 -21 -35 -29 -38 -8 -3 -20 -23 -25
-44 -6 -22 -24 -52 -41 -68 -16 -16 -30 -35 -30 -43 0 -8 -9 -25 -20 -39 -11
-14 -20 -32 -20 -39 0 -7 -9 -18 -19 -23 -18 -10 -44 -65 -35 -74 2 -2 -2 -10
-11 -17 -8 -7 -15 -18 -15 -24 0 -7 -11 -23 -25 -36 -14 -13 -25 -30 -25 -38
0 -20 -30 -71 -68 -115 -19 -21 -31 -45 -28 -52 2 -7 -4 -21 -15 -31 -10 -9
-19 -29 -19 -44 0 -14 -5 -31 -10 -36 -28 -28 -206 -392 -215 -441 -4 -18 -10
-33 -14 -33 -9 0 -51 -95 -51 -115 0 -9 -9 -33 -20 -55 -11 -22 -20 -46 -20
-53 0 -8 -6 -20 -14 -26 -7 -6 -16 -24 -19 -39 -7 -33 -36 -96 -83 -177 -46
-80 -70 -133 -79 -175 -4 -19 -13 -42 -19 -50 -7 -8 -18 -35 -25 -60 -7 -25
-21 -60 -32 -78 -10 -18 -19 -41 -19 -51 0 -9 -11 -32 -25 -51 -14 -19 -25
-44 -25 -56 0 -12 -7 -38 -15 -57 -8 -20 -15 -48 -15 -62 0 -14 -6 -28 -14
-31 -19 -7 -46 -76 -46 -114 0 -17 -10 -47 -23 -68 -38 -60 -95 -271 -94 -344
0 -30 -6 -55 -15 -65 -8 -10 -18 -42 -22 -72 -4 -29 -13 -63 -20 -75 -9 -13
-16 -66 -19 -136 -3 -75 -11 -130 -22 -157 -14 -33 -16 -50 -8 -81 6 -23 7
-46 1 -55 -13 -25 -19 -392 -7 -487 6 -47 11 -96 11 -110 1 -95 21 -289 38
-373 6 -26 10 -67 10 -91 0 -26 10 -62 25 -92 14 -27 25 -57 25 -67 0 -9 4
-25 9 -35 6 -9 12 -33 16 -53 3 -20 14 -44 25 -54 11 -10 20 -30 20 -45 0 -28
21 -77 50 -120 16 -22 50 -85 170 -317 21 -40 48 -85 60 -100 47 -60 172 -241
200 -288 16 -28 47 -66 70 -83 22 -18 40 -41 40 -50 0 -16 206 -237 240 -258
9 -5 23 -21 33 -36 10 -16 24 -28 31 -28 7 0 19 -7 26 -15 11 -13 221 -15
1801 -15 1693 0 1789 1 1790 18 1 9 1 20 0 25 0 4 2 6 6 5 5 0 25 6 45 15 21
10 42 17 48 17 6 0 45 20 88 45 97 57 129 66 222 64 41 0 95 3 120 8 58 11
100 5 100 -12 0 -8 -6 -12 -14 -9 -8 3 -17 0 -22 -7 -4 -8 -3 -10 4 -5 7 4 12
3 12 -3 0 -6 7 -7 17 -4 11 4 14 3 9 -5 -4 -7 -2 -12 4 -12 7 0 9 8 5 20 -5
15 -2 20 13 20 15 0 19 -5 15 -20 -7 -27 5 -25 17 3 7 18 9 19 9 4 1 -14 6
-17 22 -12 16 5 20 3 16 -6 -2 -8 -10 -13 -16 -11 -15 3 -14 -15 2 -22 10 -5
10 -7 0 -12 -7 -3 -13 -11 -13 -18 0 -7 -10 -18 -22 -24 -13 -6 -17 -11 -10
-11 7 -1 23 10 36 24 30 32 39 31 66 -3 18 -23 20 -24 15 -6 -4 15 0 24 10 28
9 3 13 10 10 16 -3 5 -1 10 4 10 11 0 15 -13 12 -37 -1 -7 5 -13 14 -13 8 0
15 -7 15 -15 0 -8 -4 -15 -10 -15 -5 0 -10 -9 -10 -20 0 -20 7 -20 455 -20
250 0 455 2 455 5 0 8 -81 79 -105 92 -12 7 -47 46 -77 87 -67 90 -73 86 129
86 l141 0 4 -61 c2 -38 -1 -64 -9 -70 -6 -6 -13 -39 -15 -75 l-3 -64 273 0
272 0 0 833 -1 832 -35 -65 c-19 -36 -38 -72 -42 -80 -32 -56 -44 -79 -58
-110 -30 -66 -86 -185 -120 -257 -19 -39 -34 -76 -34 -82 0 -13 -14 -14 -38
-2 -9 5 -62 19 -117 30 -79 17 -140 21 -285 22 -102 1 -204 -3 -227 -9 -24 -5
-43 -8 -43 -6 0 2 13 50 30 106 16 57 39 152 50 213 12 60 26 115 32 122 5 6
13 52 18 102 5 50 11 94 14 100 9 14 11 323 3 456 -12 180 -13 196 -25 245 -6
25 -16 81 -22 125 -7 44 -18 94 -25 110 -7 17 -17 53 -20 80 -4 28 -17 63 -27
78 -11 15 -17 34 -14 42 8 23 -5 75 -19 75 -8 0 -18 19 -23 43 -25 104 -45
165 -68 204 -13 23 -24 51 -24 63 0 12 -19 47 -43 78 -23 32 -51 77 -62 102
-26 61 -132 245 -150 260 -8 7 -15 17 -15 23 0 19 -51 86 -70 92 -11 4 -16 12
-13 24 3 11 -8 28 -31 49 -20 17 -36 36 -36 41 0 5 -8 16 -18 23 -9 7 -25 24
-34 38 -25 39 -100 116 -125 129 -13 6 -23 17 -23 24 0 7 -10 24 -23 38 -12
15 -33 40 -47 57 -50 60 -238 248 -296 296 -32 27 -68 59 -79 71 -21 24 -171
145 -180 145 -3 0 -32 21 -66 48 -34 26 -95 70 -135 98 -41 28 -82 58 -92 67
-10 9 -27 17 -36 17 -35 0 -74 32 -85 71 -7 21 -22 55 -34 76 -24 39 -461 492
-489 507 -10 5 -18 15 -18 23 0 7 -4 13 -8 13 -15 0 -72 57 -100 98 -15 22
-50 74 -79 115 -116 166 -233 386 -233 435 0 12 -14 63 -30 114 -41 127 -58
226 -70 408 -10 172 -2 323 25 440 28 121 67 233 92 263 28 35 29 67 4 89 -18
16 -23 15 -72 -2 -29 -11 -54 -18 -57 -16 -8 9 29 63 70 103 59 57 68 65 106
92 40 28 45 75 10 85 -39 10 -60 6 -168 -29z m-30 -114 c0 -5 -18 -24 -40 -44
-22 -19 -40 -39 -40 -44 0 -6 -13 -20 -30 -33 -16 -12 -27 -27 -24 -31 3 -5 0
-9 -5 -9 -6 0 -11 -6 -11 -13 0 -7 -8 -20 -17 -29 -20 -19 -25 -25 -73 -93
-19 -28 -40 -55 -48 -60 -7 -6 -14 -20 -15 -32 0 -13 -7 -25 -15 -28 -8 -3
-11 -12 -8 -20 3 -8 1 -15 -4 -15 -6 0 -10 -9 -10 -20 0 -23 3 -24 28 -11 9 6
29 12 43 15 14 3 50 28 80 56 30 27 57 50 62 50 4 0 7 9 7 21 0 11 4 18 8 15
5 -3 28 13 52 34 25 22 47 40 51 40 4 0 3 -15 -3 -32 -23 -76 -38 -137 -42
-174 -2 -21 -8 -64 -13 -94 -11 -73 -6 -452 7 -565 18 -158 50 -296 80 -345
15 -25 31 -56 35 -70 11 -38 86 -182 157 -302 79 -134 176 -263 252 -336 32
-31 77 -77 100 -102 60 -66 92 -97 186 -180 46 -41 118 -109 159 -150 91 -90
126 -120 169 -145 18 -11 38 -35 47 -58 9 -23 27 -45 47 -55 45 -24 95 -73
103 -100 7 -23 -12 -28 -28 -7 -4 6 -10 0 -13 -13 -4 -14 -12 -21 -20 -18 -7
3 -16 1 -19 -3 -3 -5 -15 -7 -27 -3 -18 4 -20 2 -16 -16 6 -21 5 -21 -17 -4
-13 9 -20 21 -17 26 3 5 0 6 -6 2 -20 -12 -157 92 -283 215 -68 67 -140 129
-160 139 -20 11 -84 67 -142 127 -67 68 -107 102 -107 91 0 -10 -5 -18 -12
-18 -6 0 -9 3 -6 6 4 3 -24 31 -60 61 -37 31 -77 68 -89 82 l-23 26 14 -40 c7
-22 45 -114 83 -205 78 -186 148 -369 142 -374 -2 -2 -14 -7 -26 -10 -18 -6
-36 7 -99 66 -42 40 -96 102 -120 138 -23 36 -59 81 -79 100 l-37 35 8 -40 c4
-22 22 -92 40 -155 49 -166 81 -319 93 -450 6 -63 18 -167 26 -230 13 -101 13
-117 0 -137 -9 -13 -21 -23 -28 -23 -17 0 -46 33 -77 84 -13 22 -49 71 -80
110 -31 39 -80 106 -109 148 -63 93 -247 287 -310 328 -26 16 -59 46 -76 67
-16 20 -42 49 -56 63 -14 14 -33 37 -42 53 -36 57 -43 39 -57 -149 -10 -147
-51 -379 -69 -397 -8 -8 -18 -4 -34 11 -46 43 -57 27 -82 -108 -18 -99 -52
-174 -81 -178 -32 -5 -69 33 -108 109 -33 64 -70 125 -86 139 -17 16 -136 237
-160 300 -24 60 -48 93 -64 87 -6 -2 -18 4 -27 15 -14 15 -21 16 -48 7 -17 -6
-31 -15 -31 -20 0 -5 -7 -9 -16 -9 -8 0 -12 -4 -9 -10 3 -5 0 -7 -9 -4 -10 4
-30 -20 -67 -80 -29 -47 -59 -86 -67 -86 -9 0 -13 -3 -9 -6 8 -8 -31 -49 -46
-49 -14 0 -107 -136 -100 -147 2 -5 -1 -8 -6 -8 -6 0 -11 5 -11 12 0 6 -3 8
-6 5 -4 -4 -1 -14 7 -24 8 -9 9 -14 2 -10 -6 4 -26 -10 -47 -35 l-36 -43 6 35
c4 19 20 74 36 123 16 48 32 102 35 120 5 32 5 32 -15 13 -12 -10 -30 -43 -41
-75 -43 -121 -67 -178 -84 -202 -10 -13 -15 -18 -12 -11 4 8 -4 12 -28 12 -38
0 -44 9 -55 70 -9 59 -4 107 22 218 13 59 27 123 30 142 3 19 9 51 12 70 4 19
3 32 -1 28 -5 -4 -14 -3 -21 3 -10 8 -21 3 -46 -20 -18 -16 -35 -27 -38 -24
-3 3 0 7 6 10 5 2 9 21 8 43 -1 28 2 38 10 33 6 -4 4 4 -5 17 -18 29 -14 61 7
53 7 -3 17 2 20 12 4 9 13 14 20 11 8 -3 11 0 7 10 -6 17 -23 19 -23 2 0 -9
-3 -9 -12 0 -10 10 -8 19 6 43 10 16 15 36 12 44 -6 17 10 30 19 15 3 -5 22
-10 41 -10 32 0 33 1 22 20 -15 23 -33 27 -24 5 3 -8 1 -15 -5 -15 -6 0 -9 8
-7 18 1 9 -1 23 -5 29 -6 9 -3 11 7 7 11 -4 16 0 16 11 0 11 -5 15 -14 12 -33
-13 -25 36 23 148 14 32 33 101 36 127 1 12 4 25 5 28 6 13 4 36 -4 42 -5 3
-24 -4 -43 -15 -25 -17 -33 -28 -31 -46 2 -14 -3 -26 -11 -29 -8 -3 -11 0 -7
7 4 6 3 11 -1 11 -5 0 -14 -9 -20 -19 -10 -15 -10 -20 0 -24 14 -4 -8 -37 -26
-37 -6 0 -8 3 -4 6 3 3 1 19 -5 35 -10 30 -33 39 -41 17 -6 -20 3 -38 20 -38
11 0 13 -3 5 -13 -7 -8 -7 -18 -2 -27 5 -8 6 -18 4 -22 -3 -4 -1 -8 5 -8 5 0
12 6 15 13 3 6 3 1 0 -13 -13 -49 -64 -141 -76 -134 -7 4 -8 3 -4 -5 9 -14
-12 -43 -25 -35 -5 3 -9 -2 -9 -10 0 -8 -4 -17 -9 -20 -5 -3 -8 7 -7 24 1 17
-4 32 -12 35 -10 3 -12 -1 -8 -18 3 -12 3 -16 0 -9 -3 6 -11 9 -16 6 -7 -4 -8
-2 -4 4 4 7 1 12 -9 12 -13 0 -15 5 -10 18 4 9 10 29 13 45 2 15 9 27 14 27 6
0 7 -7 4 -16 -4 -10 -2 -13 7 -7 6 4 23 6 36 4 14 -2 21 1 17 8 -4 5 -14 7
-24 4 -11 -3 -7 4 10 21 26 25 56 36 43 17 -3 -5 -1 -12 4 -16 6 -3 8 3 6 15
-2 11 3 24 13 29 9 5 13 13 9 17 -4 4 -14 -1 -23 -12 -15 -18 -15 -17 -10 14
4 26 2 32 -12 32 -15 0 -15 -2 -2 -10 13 -9 13 -10 0 -10 -10 0 -16 -9 -15
-27 0 -21 -5 -26 -25 -28 -35 -3 -51 16 -34 40 8 10 14 25 14 33 0 8 20 56 44
106 24 50 49 106 56 124 7 18 26 49 41 69 16 20 29 44 29 53 0 10 7 23 15 30
8 7 15 18 15 24 0 6 12 22 25 35 14 13 26 29 26 37 3 34 15 54 32 54 8 0 7 -3
-2 -9 -8 -5 -11 -15 -8 -23 4 -13 16 -14 58 -9 7 1 21 31 14 31 -2 0 -11 -7
-19 -16 -9 -9 -16 -11 -16 -4 0 6 -5 8 -12 4 -7 -4 -8 -3 -4 5 4 6 12 9 17 6
5 -4 9 -2 9 3 0 5 10 12 21 15 14 4 20 11 16 21 -4 9 -1 15 5 13 6 -1 12 11
12 27 1 17 7 31 16 33 12 4 12 3 2 -5 -11 -8 -11 -10 1 -15 18 -7 33 23 17 33
-8 5 -6 9 4 13 9 4 16 18 16 32 0 14 4 25 9 25 5 0 12 12 16 27 4 19 9 23 14
14 6 -10 9 -9 14 2 7 18 -16 40 -29 29 -5 -4 5 9 21 28 17 19 21 28 11 20 -18
-14 -19 -14 -8 7 7 12 17 25 22 28 6 4 8 11 5 16 -4 5 -1 9 4 9 6 0 11 7 11
15 0 9 25 40 55 70 30 29 55 59 55 67 0 7 12 26 28 41 15 16 39 41 55 57 15
15 27 35 27 44 0 9 4 16 8 16 11 0 44 32 62 61 8 13 27 35 42 50 15 14 28 32
30 39 2 8 18 30 36 49 19 20 43 53 54 75 11 21 97 116 191 210 95 94 193 194
219 221 88 94 163 162 218 198 30 20 81 54 112 76 68 46 115 71 137 71 9 0 22
9 29 20 7 11 23 20 36 20 13 0 29 7 36 15 7 8 21 15 31 15 10 0 33 9 51 20 35
21 58 26 58 11z m-2107 -2435 c4 -10 1 -13 -8 -9 -8 3 -12 9 -9 14 7 12 11 11
17 -5z m-3 -183 c0 -3 -7 -3 -15 1 -20 7 -19 -4 2 -19 18 -14 19 -11 -25 -91
-25 -44 -73 -104 -84 -104 -6 0 -7 19 -3 50 6 42 4 50 -9 50 -20 0 -20 14 -1
34 8 8 13 21 10 29 -3 7 1 20 9 27 9 7 13 16 10 21 -3 5 1 9 10 9 8 0 16 -3
19 -7 2 -5 2 -3 1 4 -4 15 13 27 18 12 2 -5 11 -7 21 -3 12 4 15 10 7 19 -5 6
-7 15 -3 18 5 6 33 -36 33 -50z m20 -13 c0 -5 -4 -10 -10 -10 -5 0 -10 5 -10
10 0 6 5 10 10 10 6 0 10 -4 10 -10z m525 -550 c3 -5 -1 -10 -10 -10 -9 0 -13
5 -10 10 3 6 8 10 10 10 2 0 7 -4 10 -10z m5078 -3635 c-3 -9 -8 -14 -10 -11
-3 3 -2 9 2 15 9 16 15 13 8 -4z m-606 -120 c0 -17 -13 -20 -21 -6 -4 5 0 12
6 14 7 3 13 6 14 6 0 1 1 -6 1 -14z m137 -21 c74 -34 166 -125 244 -241 62
-94 89 -160 73 -176 -5 -5 -7 -15 -4 -23 7 -20 -17 -84 -32 -84 -8 0 -15 18
-20 47 -4 30 -20 63 -45 97 -21 28 -49 74 -63 102 -16 30 -47 69 -78 95 -85
71 -170 162 -165 176 3 8 -2 13 -12 13 -15 0 -15 2 -2 10 23 15 43 12 104 -16z
m-994 -514 c-8 -5 -22 -9 -30 -9 -10 0 -8 3 5 9 27 12 43 12 25 0z m184 -100
c7 -7 6 -10 -1 -10 -7 0 -14 4 -18 10 -3 5 -12 7 -20 3 -8 -3 -15 0 -15 5 0
13 39 7 54 -8z m59 -70 c3 -12 0 -20 -8 -20 -9 0 -11 8 -8 23 5 18 3 20 -8 10
-7 -7 -17 -13 -23 -13 -5 0 -1 6 9 14 23 17 31 14 38 -14z"/>
<path d="M2523 6208 c-2 -18 0 -20 7 -8 12 18 13 30 2 30 -4 0 -9 -10 -9 -22z"/>
<path d="M2516 6135 c9 -14 18 -25 21 -25 8 0 -2 35 -12 42 -21 15 -25 7 -9
-17z"/>
<path d="M2470 6110 c0 -14 7 -20 23 -20 20 1 20 2 4 11 -9 6 -15 14 -12 20 4
5 1 9 -4 9 -6 0 -11 -9 -11 -20z"/>
<path d="M2486 6063 c-6 -14 -5 -15 5 -6 7 7 10 15 7 18 -3 3 -9 -2 -12 -12z"/>
<path d="M2455 6027 c-11 -7 -21 -19 -23 -27 -2 -10 4 -7 18 8 12 12 25 20 31
17 5 -4 9 -1 9 4 0 14 -10 13 -35 -2z"/>
<path d="M2246 5575 c-6 -16 9 -21 19 -5 3 5 13 7 23 4 14 -5 15 -4 2 5 -21
15 -37 14 -44 -4z"/>
<path d="M2145 5480 c3 -5 8 -10 11 -10 2 0 4 5 4 10 0 6 -5 10 -11 10 -5 0
-7 -4 -4 -10z"/>
<path d="M2405 5390 c10 -11 20 -20 22 -20 2 0 -2 9 -9 20 -7 11 -17 20 -22
20 -5 0 -1 -9 9 -20z"/>
<path d="M2370 5290 c0 -5 7 -10 16 -10 8 0 12 5 9 10 -3 6 -10 10 -16 10 -5
0 -9 -4 -9 -10z"/>
<path d="M2245 5240 c10 -11 20 -20 23 -20 3 0 -3 9 -13 20 -10 11 -20 20 -23
20 -3 0 3 -9 13 -20z"/>
<path d="M2330 5230 c0 -6 7 -10 15 -10 8 0 15 2 15 4 0 2 -7 6 -15 10 -8 3
-15 1 -15 -4z"/>
<path d="M2361 5194 c0 -11 3 -14 6 -6 3 7 2 16 -1 19 -3 4 -6 -2 -5 -13z"/>
<path d="M2326 5123 c-6 -14 -5 -15 5 -6 7 7 10 15 7 18 -3 3 -9 -2 -12 -12z"/>
<path d="M2189 5073 c-11 -15 -11 -16 1 -5 8 6 21 12 29 12 11 0 11 -3 -3 -13
-17 -13 -18 -14 -2 -20 9 -4 15 -3 11 2 -3 5 0 11 7 13 15 5 1 28 -16 28 -8 0
-20 -8 -27 -17z"/>
<path d="M2250 5076 c0 -2 7 -9 15 -16 13 -11 14 -10 9 4 -5 14 -24 23 -24 12z"/>
<path d="M2434 5044 c-10 -8 -13 -12 -5 -8 11 5 13 3 8 -10 -4 -10 -7 -26 -7
-37 0 -12 -5 -16 -15 -13 -8 4 -12 11 -8 18 4 7 1 7 -9 -1 -8 -7 -17 -12 -19
-10 -2 1 2 -4 10 -10 8 -7 18 -13 23 -13 4 0 8 -7 8 -16 0 -13 -3 -14 -14 -5
-11 9 -16 9 -22 0 -4 -8 -3 -9 4 -5 16 10 15 -17 0 -32 -9 -9 -9 -15 1 -24 10
-11 12 -10 9 2 -2 9 4 14 15 14 9 -1 17 2 17 7 0 5 -5 9 -11 9 -6 0 -3 7 5 16
9 8 20 12 26 9 10 -6 15 13 12 50 -2 16 0 17 8 5 11 -17 11 -16 14 22 1 14 -1
26 -4 26 -3 0 -12 0 -20 1 -13 1 -13 2 0 11 8 5 10 10 4 10 -5 0 -19 -7 -30
-16z"/>
<path d="M2566 5022 c-3 -5 1 -9 9 -9 8 0 12 4 9 9 -3 4 -7 8 -9 8 -2 0 -6 -4
-9 -8z"/>
<path d="M2325 5010 c-3 -5 -1 -10 4 -10 6 0 11 5 11 10 0 6 -2 10 -4 10 -3 0
-8 -4 -11 -10z"/>
<path d="M2211 4994 c0 -11 3 -14 6 -6 3 7 2 16 -1 19 -3 4 -6 -2 -5 -13z"/>
<path d="M2260 4960 c-12 -7 -10 -9 7 -7 12 0 19 5 17 9 -6 10 -6 10 -24 -2z"/>
<path d="M2213 4913 c9 -9 20 -13 24 -9 4 4 1 11 -7 16 -25 16 -35 11 -17 -7z"/>
<path d="M2456 4905 c-6 -17 15 -30 36 -22 7 3 3 6 -9 6 -16 1 -21 6 -17 16 4
8 4 15 1 15 -3 0 -8 -7 -11 -15z"/>
<path d="M2435 4861 c-3 -6 4 -9 15 -8 11 1 20 5 20 9 0 11 -28 10 -35 -1z"/>
<path d="M2475 4840 c-3 -5 -2 -10 4 -10 5 0 13 5 16 10 3 6 2 10 -4 10 -5 0
-13 -4 -16 -10z"/>
</g>
</svg>
